<svg xmlns="http://www.w3.org/2000/svg" xmlns:xlink="http://www.w3.org/1999/xlink" viewBox="0 0 40 40"><defs><path id="a" d="M-57.44 469.33h1440v810h-1440z"/></defs><clipPath id="b"><use xlink:href="#a" overflow="visible"/></clipPath><circle clip-path="url(#b)" fill="#00C29E" cx="673.12" cy="863.76" r="836.45"/><path fill-rule="evenodd" clip-rule="evenodd" d="M20 39.97C8.98 39.97.01 31.01.01 20 .01 8.99 8.98.03 20 .03 31.02.03 39.99 8.99 39.99 20c0 11.01-8.97 19.97-19.99 19.97zm16.86-17.24c-.58-.18-5.29-1.58-10.64-.73 2.23 6.13 3.14 11.12 3.32 12.16 3.83-2.58 6.56-6.68 7.32-11.43zM26.67 35.72c-.25-1.5-1.25-6.71-3.64-12.93-.04.01-.08.02-.11.04-9.63 3.35-13.09 10.02-13.4 10.65 2.9 2.25 6.53 3.6 10.48 3.6 2.37 0 4.62-.48 6.67-1.36zM7.31 31.43c.39-.66 5.07-8.41 13.88-11.25.22-.07.45-.14.67-.2-.43-.97-.9-1.94-1.38-2.89-8.53 2.55-16.8 2.44-17.55 2.43-.01.17-.01.35-.01.52 0 4.37 1.67 8.37 4.39 11.39zm-4.03-14.9c.76.01 7.8.04 15.79-2.08-2.83-5.02-5.88-9.25-6.33-9.86-4.78 2.25-8.35 6.65-9.46 11.94zM16 3.45c.47.63 3.57 4.85 6.37 9.98 6.07-2.27 8.64-5.72 8.95-6.16C28.3 4.6 24.34 2.97 20 2.97c-1.38 0-2.72.17-4 .48zm17.22 5.79c-.36.49-3.22 4.15-9.54 6.72.4.81.78 1.64 1.13 2.47.13.29.25.59.37.88 5.68-.71 11.33.43 11.89.55-.03-4.02-1.47-7.72-3.85-10.62z"/></svg>