<svg xmlns="http://www.w3.org/2000/svg" xmlns:xlink="http://www.w3.org/1999/xlink" viewBox="0 0 40 40"><defs><path id="a" d="M-8.44 469.33h1440v810h-1440z"/></defs><clipPath id="b"><use xlink:href="#a" overflow="visible"/></clipPath><circle clip-path="url(#b)" fill="#00C29E" cx="722.12" cy="863.76" r="836.45"/><path d="M20 1.2C9.63 1.2 1.2 9.63 1.2 20S9.63 38.8 20 38.8 38.8 30.37 38.8 20 30.37 1.2 20 1.2zm5.05 34.01c-.79.14-1.08-.35-1.08-.77 0-.53.02-2.25.02-4.4 0-1.5-.51-2.47-1.09-2.97 3.57-.4 7.32-1.75 7.32-7.91 0-1.75-.62-3.18-1.65-4.3.17-.41.71-2.04-.16-4.24 0 0-1.34-.43-4.4 1.64-1.28-.36-2.65-.53-4.01-.54-1.36.01-2.74.18-4.01.54-3.06-2.07-4.41-1.64-4.41-1.64-.87 2.21-.32 3.84-.16 4.24-1.02 1.12-1.65 2.55-1.65 4.3 0 6.14 3.74 7.52 7.3 7.92-.46.4-.87 1.11-1.02 2.14-.91.41-3.24 1.12-4.67-1.33 0 0-.84-1.54-2.45-1.65 0 0-1.56-.02-.11.98 0 0 1.05.49 1.78 2.34 0 0 .94 3.12 5.4 2.15.01 1.34.02 2.34.02 2.72 0 .42-.29.92-1.09.77-.02-.01-.42-.14-.6-.21.16.06.32.12.48.17C8.51 33.02 3.97 27.04 3.97 20c0-8.85 7.18-16.03 16.03-16.03S36.03 11.15 36.03 20c0 7.09-4.6 13.09-10.98 15.21z"/></svg>