<svg xmlns="http://www.w3.org/2000/svg" xmlns:xlink="http://www.w3.org/1999/xlink" viewBox="0 0 40 40"><defs><path id="a" d="M-104.1 469.33h1440v810h-1440z"/></defs><clipPath id="b"><use xlink:href="#a" overflow="visible"/></clipPath><circle clip-path="url(#b)" fill="#00C29E" cx="626.46" cy="863.76" r="836.45"/><g><path d="M20 .03C8.97.03.03 8.97.03 20S8.97 39.97 20 39.97 39.97 31.03 39.97 20 31.03.03 20 .03zm0 37c-9.39 0-17.03-7.64-17.03-17.03S10.61 2.97 20 2.97 37.03 10.61 37.03 20 29.39 37.03 20 37.03z"/><path d="M32.34 16.1c0-.02-.01-.03-.01-.05-.01-.03-.01-.06-.02-.09 0-.02-.01-.03-.02-.05-.01-.03-.02-.05-.03-.08-.01-.02-.02-.04-.02-.05-.01-.02-.02-.05-.04-.07-.01-.02-.02-.03-.03-.05-.01-.02-.03-.04-.04-.06-.01-.02-.02-.03-.04-.05-.02-.02-.03-.04-.05-.06l-.04-.04c-.02-.02-.04-.03-.06-.05-.02-.01-.03-.02-.05-.04-.01 0-.01-.01-.02-.01L20.59 7.83c-.36-.24-.82-.24-1.18 0L8.13 15.36c-.01 0-.01.01-.02.01-.02.01-.03.02-.05.04-.02.01-.04.03-.06.05l-.04.04c-.02.02-.04.04-.05.06-.01.01-.02.03-.04.05-.02.02-.03.04-.04.06-.01.02-.02.03-.03.05-.01.02-.02.05-.04.07-.01.02-.02.03-.02.05-.01.03-.02.05-.03.08-.01.02-.01.03-.02.05-.01.03-.01.06-.02.09 0 .02-.01.03-.01.05-.01.05-.01.09-.01.14v7.52c0 .05 0 .09.01.14 0 .01.01.03.01.05.01.03.01.06.02.09 0 .02.01.03.02.05.01.03.02.05.03.08.01.02.02.03.02.05.01.02.02.05.04.07.01.02.02.03.03.05.01.02.03.04.04.06.01.02.02.03.04.05.02.02.03.04.05.06l.04.04c.02.02.04.03.06.05.02.01.03.02.05.04.01 0 .01.01.02.01l11.28 7.52c.18.12.38.18.59.18.2 0 .41-.06.59-.18l11.28-7.52c.01 0 .01-.01.02-.01.02-.01.03-.02.05-.04.02-.02.04-.03.06-.05l.04-.04c.02-.02.04-.04.05-.06.01-.01.02-.03.04-.05.02-.02.03-.04.04-.06.01-.02.02-.03.03-.05.01-.02.02-.05.04-.07.01-.02.02-.03.02-.05.01-.03.02-.05.03-.08.01-.02.01-.03.02-.05.01-.03.01-.06.02-.09 0-.01.01-.03.01-.05.01-.05.01-.09.01-.14v-7.52c-.01-.06-.01-.1-.01-.15zm-11.28-5.4l8.31 5.54-3.71 2.48-4.6-3.08V10.7zm-2.12 0v4.95l-4.6 3.08-3.71-2.48 8.31-5.55zm-9.16 7.52L12.43 20l-2.65 1.78v-3.56zm9.16 11.08l-8.31-5.54 3.71-2.48 4.6 3.08v4.94zM20 22.51L16.25 20 20 17.49 23.75 20 20 22.51zm1.06 6.79v-4.95l4.6-3.08 3.71 2.48-8.31 5.55zm9.16-7.52L27.57 20l2.65-1.78v3.56z"/></g></svg>