<svg xmlns="http://www.w3.org/2000/svg" xmlns:xlink="http://www.w3.org/1999/xlink" viewBox="0 0 40 40"><defs><path id="a" d="M-57.44 469.33h1440v810h-1440z"/></defs><clipPath id="b"><use xlink:href="#a" overflow="visible"/></clipPath><circle clip-path="url(#b)" fill="#00C29E" cx="673.12" cy="863.76" r="836.45"/><path fill-rule="evenodd" clip-rule="evenodd" d="M20 38.77C9.64 38.77 1.21 30.35 1.21 20S9.64 1.23 20 1.23 38.79 9.65 38.79 20 30.36 38.77 20 38.77zm15.85-16.2c-.55-.17-4.97-1.49-10-.69 2.1 5.76 2.95 10.45 3.12 11.43 3.6-2.43 6.16-6.28 6.88-10.74zm-9.58 12.21c-.24-1.41-1.17-6.31-3.42-12.16-.04.01-.07.02-.11.04-9.05 3.15-12.3 9.42-12.59 10.01 2.72 2.12 6.14 3.38 9.85 3.38 2.22 0 4.34-.45 6.27-1.27zm-18.2-4.04c.36-.62 4.77-7.91 13.05-10.58.21-.07.42-.13.63-.19-.4-.91-.84-1.82-1.3-2.72-8.02 2.4-15.79 2.3-16.5 2.28 0 .16-.01.33-.01.49.01 4.12 1.57 7.88 4.13 10.72zm-3.78-14c.72.01 7.33.04 14.84-1.95-2.66-4.72-5.53-8.69-5.95-9.27-4.49 2.11-7.85 6.25-8.89 11.22zm11.95-12.3c.44.59 3.36 4.56 5.99 9.38 5.71-2.14 8.12-5.38 8.41-5.79C27.81 5.52 24.08 3.99 20 3.99c-1.3 0-2.55.16-3.76.45zm16.18 5.45c-.34.46-3.03 3.9-8.96 6.32.37.76.73 1.54 1.06 2.32.12.28.23.55.35.83 5.34-.67 10.65.4 11.18.52-.04-3.79-1.39-7.26-3.63-9.99z"/></svg>