<svg xmlns="http://www.w3.org/2000/svg" xmlns:xlink="http://www.w3.org/1999/xlink" viewBox="0 0 40 40"><defs><path id="a" d="M-8.44 469.33h1440v810h-1440z"/></defs><clipPath id="b"><use xlink:href="#a" overflow="visible"/></clipPath><circle clip-path="url(#b)" fill="#00C29E" cx="722.12" cy="863.76" r="836.45"/><path d="M20 0C8.97 0 0 8.97 0 20s8.97 20 20 20 20-8.97 20-20S31.03 0 20 0zm5.38 36.18c-.85.15-1.15-.37-1.15-.82 0-.56.02-2.4.02-4.68 0-1.59-.55-2.63-1.16-3.16 3.8-.42 7.79-1.86 7.79-8.42 0-1.86-.66-3.38-1.75-4.57.18-.43.76-2.17-.17-4.52 0 0-1.43-.46-4.69 1.75-1.36-.38-2.82-.57-4.27-.57-1.45.01-2.91.2-4.27.57-3.26-2.21-4.69-1.75-4.69-1.75-.93 2.35-.34 4.08-.17 4.52-1.09 1.19-1.75 2.71-1.75 4.57 0 6.53 3.98 8 7.77 8.43-.49.43-.93 1.18-1.08 2.28-.97.44-3.44 1.19-4.97-1.42 0 0-.9-1.64-2.61-1.76 0 0-1.66-.02-.12 1.04 0 0 1.12.52 1.89 2.49 0 0 1 3.31 5.75 2.29.01 1.42.02 2.49.02 2.9 0 .45-.31.97-1.15.82-.02-.01-.45-.15-.64-.23.17.07.34.12.51.18C7.78 33.85 2.95 27.49 2.95 20c0-9.42 7.64-17.05 17.05-17.05S37.05 10.58 37.05 20c0 7.54-4.89 13.93-11.67 16.18z"/></svg>