<svg xmlns="http://www.w3.org/2000/svg" xmlns:xlink="http://www.w3.org/1999/xlink" viewBox="0 0 40 40"><defs><path id="a" d="M-200.44 469.33h1440v810h-1440z"/></defs><clipPath id="b"><use xlink:href="#a" overflow="visible"/></clipPath><circle clip-path="url(#b)" fill="#00C29E" cx="530.12" cy="863.76" r="836.45"/><g><path d="M20.61 1.24C9.76.9.9 9.76 1.24 20.61c.31 9.83 8.32 17.83 18.14 18.14 10.85.35 19.72-8.52 19.37-19.37-.31-9.82-8.31-17.82-18.14-18.14zm.85 34.7c-9.97.89-18.29-7.43-17.4-17.4.68-7.64 6.84-13.8 14.48-14.48 9.97-.89 18.29 7.43 17.4 17.4-.68 7.65-6.84 13.8-14.48 14.48z"/><path d="M18.73 16.85h3.38l-1.66 11.83h-3.38l1.66-11.83zm.28-3.52c0-1.27 1.04-2.2 2.25-2.2.99 0 1.72.7 1.72 1.69 0 1.27-1.07 2.17-2.28 2.17-.99 0-1.69-.67-1.69-1.66z"/></g></svg>