<svg xmlns="http://www.w3.org/2000/svg" xmlns:xlink="http://www.w3.org/1999/xlink" viewBox="0 0 40 40"><defs><path id="a" d="M-104.1 469.33h1440v810h-1440z"/></defs><clipPath id="b"><use xlink:href="#a" overflow="visible"/></clipPath><circle clip-path="url(#b)" fill="#00C29E" cx="626.46" cy="863.76" r="836.45"/><g><path d="M20 1.23C9.63 1.23 1.23 9.63 1.23 20S9.63 38.77 20 38.77c10.36 0 18.77-8.4 18.77-18.77S30.37 1.23 20 1.23zm0 34.78c-8.83 0-16.01-7.18-16.01-16.01S11.17 3.99 20 3.99c8.83 0 16.01 7.18 16.01 16.01S28.83 36.01 20 36.01z"/><path d="M31.6 16.33c0-.01-.01-.03-.01-.04 0-.03-.01-.06-.02-.08 0-.02-.01-.03-.02-.05-.01-.02-.02-.05-.03-.07-.01-.02-.01-.03-.02-.05-.01-.02-.02-.04-.03-.07-.01-.02-.02-.03-.03-.05-.01-.02-.03-.04-.04-.06-.01-.01-.02-.03-.03-.04-.02-.02-.03-.04-.05-.05l-.04-.04c-.02-.02-.04-.03-.06-.05-.01-.01-.03-.02-.05-.03-.01 0-.01-.01-.02-.01l-10.6-7.08c-.34-.22-.77-.22-1.11 0l-10.6 7.07c-.01 0-.01.01-.02.01-.02.01-.03.02-.04.03-.02.02-.04.03-.06.05l-.04.04c-.02.02-.03.04-.05.05-.01.01-.02.03-.03.04-.01.02-.03.04-.04.06-.01.02-.02.03-.03.05-.01.02-.02.04-.03.07-.01.02-.02.03-.02.05-.01.02-.02.05-.03.07-.01.02-.01.03-.02.05-.01.03-.01.06-.02.08 0 .01-.01.03-.01.04v7.21c0 .04 0 .09.01.13 0 .01.01.03.01.04.01.03.01.06.02.08 0 .02.01.03.02.05.01.02.02.05.03.07.01.02.01.03.02.05.01.02.02.04.03.07.01.02.02.03.03.05.01.02.03.04.04.06.01.02.02.03.03.04.02.02.03.04.05.05l.04.04c.02.02.04.03.06.05.01.01.03.02.04.03.01 0 .01.01.02.01l10.61 7.07c.17.11.36.17.55.17.19 0 .39-.06.55-.17l10.61-7.07c.01 0 .01-.01.02-.01.02-.01.03-.02.05-.03.02-.02.04-.03.06-.05l.04-.04c.02-.02.03-.04.05-.05.01-.01.02-.03.03-.04.02-.02.03-.04.04-.06.01-.02.02-.03.03-.05.01-.02.02-.04.03-.07.01-.02.02-.03.02-.05.01-.02.02-.05.03-.07.01-.02.01-.03.02-.05.01-.03.01-.06.02-.08 0-.01.01-.03.01-.04.01-.04.01-.09.01-.13v-7.07c-.03-.04-.03-.08-.03-.13zM21 11.26l7.81 5.21-3.49 2.33L21 15.91v-4.65zm-2 0v4.65l-4.32 2.89-3.49-2.33L19 11.26zm-8.61 7.07l2.5 1.67-2.5 1.67v-3.34zM19 28.74l-7.81-5.21 3.49-2.33L19 24.09v4.65zm1-6.38L16.47 20 20 17.64 23.53 20 20 22.36zm1 6.38v-4.65l4.32-2.89 3.49 2.33L21 28.74zm8.61-7.07L27.11 20l2.49-1.67v3.34z"/></g></svg>